Genre:Action | Horror | Sci-Fi | Thriller
Language: English
IMDB:http://www.imdb.com/title/tt1220634/
Source:DVD9/Twizted
Subtitles:Romana


General
Complete name :Resident Evil Afterlife R5 LINE H264 Feel-Free
Format : MPEG-4
Format profile : Base Media
Codec ID : isom
File size : 1.09 GiB
Duration : 1h 32mn
Overall bit rate : 1 679 Kbps
Video #2
Codec ID : avc1
Codec ID/Info : Advanced Video Coding
Duration : 1h 32mn
Bit rate mode : Variable
Bit rate : 1 513 Kbps
Width : 720 pixels
Height : 304 pixels
Display aspect ratio : 2.35:1
Frame rate mode : Constant
Frame rate : 25.000 fps
Resolution : 24 bits
Colorimetry : 4:2:0
Scan type : Progressive
Bits/(Pixel*Frame) : 0.277
Stream size : 1 005 MiB (90%)
Audio #1
ID : 1
Format : AAC
Format/Info : Advanced Audio Codec
Format version : Version 4
Format profile : LC
Format settings, SBR : No
Codec ID : 40
Duration : 1h 32mn
Bit rate mode : Constant
Bit rate : 160 Kbps
Channel(s) : 2 channels
Channel positions : L R
Sampling rate : 48.0 KHz
Resolution : 16 bits
Stream size : 106 MiB (10%)

Plot:
In a world ravaged by a virus infection, turning its victims into the Undead, Alice (Jovovich)
